#!OML:ASF F:\VICON\USERDATA\INSTALL\Justin_Nancy\Justin_Nancy.ASF
:FULLY-SPECIFIED
:DEGREES
393
root -0.583209 16.981 22.5908 1.86184 -3.45554 -4.0057
lowerback 5.14192 2.06987 4.14326
upperback -0.808055 3.10829 2.26944
thorax -3.62644 1.48149 -0.228701
lowerneck -16.8472 -5.28107 -10.0757
upperneck 20.742 -6.57111 8.09867
head 9.99058 -2.94414 3.61862
rclavicle -4.5969e-015 1.78906e-014
rhumerus -24.8574 -6.55678 -78.8945
rradius 37.4505
rwrist 2.41819
rhand -15.494 12.2248
rfingers 7.12502
rthumb 10.6883 -17.4833
lclavicle -4.5969e-015 1.78906e-014
lhumerus -40.4996 14.3833 80.2337
lradius 18.9506
lwrist -17.211
lhand -6.41954 29.5111
lfingers 7.12502
lthumb 19.429 58.5604
rfemur 16.7133 6.74174 29.9885
rtibia 13.0476
rfoot -13.9928 -6.69089
rtoes -11.3087
lfemur -32.0954 -3.36637 -14.5055
ltibia 24.9512
lfoot -6.36083 6.65301
ltoes -7.11704
394
root -0.556178 16.9943 22.8091 1.75007 -3.41449 -3.54909
lowerback 5.04056 2.094 3.84567
upperback -0.882979 3.11261 2.09134
thorax -3.65189 1.48711 -0.244692
lowerneck -16.6554 -5.26127 -9.95308
upperneck 20.8708 -6.6014 8.08583
head 9.99823 -2.9545 3.59381
rclavicle 5.65667e-014 1.98785e-014
rhumerus -25.4157 -7.05124 -78.7939
rradius 37.4491
rwrist 2.50991
rhand -16.0142 12.9923
rfingers 7.12502
rthumb 10.1865 -16.7411
lclavicle 5.65667e-014 1.98785e-014
lhumerus -40.7754 15.0224 79.6734
lradius 18.5366
lwrist -18.4871
lhand -5.28051 30.0576
lfingers 7.12502
lthumb 20.5239 58.9927
rfemur 17.1455 6.62683 29.3589
rtibia 13.7623
rfoot -13.5884 -6.23756
rtoes -12.3777
lfemur -31.9491 -3.04346 -15.4434
ltibia 25.8797
lfoot -5.03701 4.458
ltoes -5.18377
395
root -0.536884 17.0078 23.0234 1.61524 -3.45163 -3.31295
lowerback 5.05677 2.14991 3.65443
upperback -0.951613 3.17612 2.01513
thorax -3.73589 1.52002 -0.224048
lowerneck -16.391 -5.27066 -10.0746
upperneck 20.9309 -6.6527 8.25148
head 9.98584 -2.97605 3.67074
rclavicle -1.79527e-014 -8.34896e-015
rhumerus -26.0224 -7.50629 -78.6438
rradius 37.4294
rwrist 2.39659
rhand -16.2309 13.5377
rfingers 7.12502
rthumb 9.97744 -16.2059
lclavicle -1.79527e-014 -8.34896e-015
lhumerus -41.0187 15.0287 79.5758
lradius 18.344
lwrist -18.8417
lhand -5.24541 29.6737
lfingers 7.12502
lthumb 20.5576 58.6052
rfemur 17.3182 6.9374 29.1518
rtibia 14.834
rfoot -12.9467 -6.196
rtoes -13.8099
lfemur -31.7456 -2.71543 -15.9904
ltibia 26.6396
lfoot -3.95429 2.84547
ltoes -4.45416
396
root -0.51895 17.022 23.2376 1.54764 -3.36234 -3.06414
lowerback 4.84244 2.16001 3.41225
upperback -0.972027 3.16163 1.94584
thorax -3.64515 1.51896 -0.151082
lowerneck -16.1055 -5.3132 -10.119
upperneck 20.9272 -6.74342 8.30985
head 9.9442 -3.02211 3.68975
rclavicle -2.70844e-014 -1.07344e-014
rhumerus -26.3285 -8.11546 -78.5164
rradius 37.1122
rwrist 2.4043
rhand -16.1508 13.2111
rfingers 7.12502
rthumb 10.0547 -16.5287
lclavicle -2.70844e-014 -1.07344e-014
lhumerus -41.1722 15.268 79.384
lradius 18.2114
lwrist -18.9366
lhand -5.19199 30.1374
lfingers 7.12502
lthumb 20.6089 59.0633
rfemur 17.0932 6.92822 28.845
rtibia 16.5417
rfoot -12.2355 -5.87025
rtoes -14.2955
lfemur -31.4651 -2.64698 -16.4667
ltibia 27.1444
lfoot -3.33318 1.56587
ltoes -4.80501
397
root -0.499139 17.0427 23.4479 1.50557 -3.17644 -2.54917
lowerback 4.82922 2.1342 2.90614
upperback -1.16668 3.09779 1.80698
thorax -3.85923 1.49283 -0.0116135
lowerneck -15.7704 -5.33737 -10.057
upperneck 21.064 -6.81279 8.21361
head 9.93093 -3.06811 3.64179
rclavicle -2.72273e-014 6.36111e-015
rhumerus -26.921 -8.764 -78.338
rradius 36.8921
rwrist 2.68805
rhand -16.3166 13.3007
rfingers 7.12502
rthumb 9.89472 -16.4468
lclavicle -2.72273e-014 6.36111e-015
lhumerus -41.5858 16.2281 78.6298
lradius 17.9493
lwrist -19.8477
lhand -4.93195 30.6626
lfingers 7.12502
lthumb 20.8588 59.5612
rfemur 16.5486 6.79264 28.1893
rtibia 18.7064
rfoot -11.3727 -5.37213
rtoes -14.4862
lfemur -31.0616 -2.97536 -17.1421
ltibia 27.4142
lfoot -3.11253 0.135758
ltoes -4.63937
